<svg xmlns="http://www.w3.org/2000/svg" width="104.774" height="34.962" viewBox="0 0 104.774 34.962"><defs><style>.a{isolation:isolate;}.b{fill:#fceafc;font-size:24px;font-family:Gilroy-Bold, Gilroy;font-weight:700;letter-spacing:0.02em;}.c{fill:none;stroke:#fceafc;stroke-miterlimit:10;stroke-width:3px;}</style></defs><g class="a" transform="translate(-44.226 -47.038)"><text class="b" transform="translate(83 76)"><tspan x="0" y="0">savvy</tspan></text><g transform="translate(45.6 48.385)"><g transform="translate(0.154 0.153)"><path class="c" d="M30.034,1H21.827a1.323,1.323,0,0,0-1.146,1.985l4,6.93A1.323,1.323,0,0,1,23.537,11.9H2.326a1.323,1.323,0,0,0-1.146,1.985L11.557,31.857a1.323,1.323,0,0,0,2.281.019L25.829,11.9,31.169,3A1.323,1.323,0,0,0,30.034,1Z" transform="translate(-1 -1)"/></g></g></g></svg>